<?xml version="1.0" standalone="no"?>
<!DOCTYPE svg PUBLIC "-//W3C//DTD SVG 20010904//EN"
 "http://www.w3.org/TR/2001/REC-SVG-20010904/DTD/svg10.dtd">
<svg version="1.0" xmlns="http://www.w3.org/2000/svg"
 width="1080.000000pt" height="1920.000000pt" viewBox="0 0 1080.000000 1920.000000"
 preserveAspectRatio="xMidYMid meet">
<metadata>
Created by potrace 1.16, written by Peter Selinger 2001-2019
</metadata>
<g transform="translate(0.000000,1920.000000) scale(0.100000,-0.100000)"
fill="#000000" stroke="none">
<path d="M3510 10080 c-75 -9 -92 -14 -140 -49 -153 -110 -220 -243 -220 -439
0 -154 58 -375 126 -479 23 -37 17 -55 -44 -119 -31 -33 -79 -88 -107 -123
-27 -34 -55 -68 -60 -74 -22 -26 -103 -145 -130 -192 -16 -27 -32 -52 -36 -55
-3 -3 -15 -23 -27 -45 -78 -155 -73 -149 -142 -160 -110 -17 -311 -93 -443
-167 -209 -119 -465 -360 -632 -597 -16 -23 -40 -55 -51 -69 -12 -15 -32 -46
-45 -70 -13 -24 -36 -65 -51 -90 -149 -259 -240 -549 -273 -872 -19 -177 -16
-309 10 -540 27 -247 122 -595 211 -772 13 -26 35 -70 49 -97 38 -77 92 -158
167 -252 37 -48 68 -91 68 -97 0 -6 -38 -75 -85 -154 -114 -191 -202 -370
-251 -513 -99 -286 -125 -379 -193 -700 -62 -291 -95 -575 -95 -810 0 -179 30
-410 65 -505 22 -57 21 -115 -3 -205 -13 -49 -52 -377 -78 -655 -10 -113 -24
-250 -30 -305 -15 -143 -30 -469 -30 -687 l0 -188 43 0 42 0 1 253 c2 260 26
753 44 880 6 40 17 140 26 222 8 83 21 188 28 235 8 47 18 111 21 143 4 31 11
57 15 57 5 0 18 -26 30 -57 99 -267 336 -622 484 -727 184 -131 435 -200 771
-213 129 -4 177 -1 340 21 105 15 210 33 235 40 25 8 79 22 120 32 41 9 84 23
95 30 11 6 31 15 45 19 50 14 217 99 295 150 44 29 90 58 102 64 12 6 27 17
35 24 7 7 20 18 30 23 23 13 225 201 330 308 85 86 154 172 263 326 28 39 63
87 78 108 76 99 164 296 198 444 33 142 41 230 36 388 -3 119 -9 162 -31 238
-25 87 -73 189 -103 220 -7 7 -13 17 -13 20 0 9 -41 56 -118 135 -49 50 -132
111 -245 181 -61 37 -187 84 -287 107 -155 34 -361 33 -564 -4 -82 -15 -154
-31 -160 -36 -6 -4 -33 -14 -61 -21 -76 -20 -208 -85 -325 -161 -170 -110
-436 -356 -557 -515 -93 -123 -182 -258 -183 -276 0 -10 9 -22 21 -28 27 -15
38 -5 105 95 82 122 85 126 133 185 138 167 371 380 531 486 108 70 267 140
395 174 175 45 396 60 567 37 141 -19 219 -45 356 -118 248 -132 401 -327 451
-576 38 -185 19 -398 -55 -621 -38 -116 -103 -254 -136 -289 -11 -12 -26 -31
-32 -41 -16 -29 -68 -103 -91 -133 -11 -15 -29 -39 -40 -55 -96 -135 -426
-466 -541 -542 -10 -6 -55 -36 -99 -65 -101 -66 -269 -152 -360 -184 -274 -96
-717 -138 -995 -94 -177 29 -341 77 -406 119 -59 38 -96 66 -137 102 -59 53
-194 231 -253 335 -53 95 -107 206 -139 285 -20 52 -41 104 -46 115 -66 149
-122 401 -134 600 -6 111 8 405 25 525 22 145 41 267 49 310 25 124 53 247 60
265 5 11 16 52 26 90 74 312 177 570 340 850 79 136 104 175 113 175 4 0 45
-32 92 -71 119 -99 199 -150 341 -219 141 -67 296 -120 449 -152 109 -22 136
-21 147 8 10 27 -29 50 -94 58 -57 6 -219 52 -338 96 -186 68 -393 200 -529
336 -130 130 -156 161 -236 284 -5 8 -21 32 -34 52 -27 40 -80 149 -118 243
-74 180 -135 426 -169 685 -13 95 -13 464 -1 550 67 466 247 849 576 1220 64
72 176 178 236 223 30 23 57 44 60 47 16 17 136 90 200 121 149 73 293 118
474 148 75 13 488 17 548 6 55 -11 88 0 88 29 0 13 -6 28 -13 34 -16 14 -385
30 -497 22 -47 -3 -87 -5 -89 -3 -13 10 127 245 214 358 210 275 527 562 810
730 316 188 593 293 940 355 239 43 321 51 606 57 323 6 439 -2 679 -48 210
-41 471 -110 533 -140 9 -5 45 -20 80 -33 161 -61 468 -236 602 -343 213 -169
377 -328 497 -478 73 -92 76 -96 165 -230 149 -226 184 -289 298 -540 42 -91
149 -385 143 -391 -2 -2 -20 5 -39 16 -161 91 -325 165 -431 194 -31 9 -59 20
-62 25 -3 5 5 25 18 44 29 43 50 135 41 180 -11 50 -44 102 -77 122 -39 23
-109 14 -152 -19 -47 -36 -80 -129 -73 -206 4 -53 3 -60 -13 -60 -10 0 -92 13
-181 29 -90 16 -220 35 -289 41 -69 6 -139 13 -157 16 -30 4 -63 -14 -63 -36
0 -26 34 -37 137 -44 124 -7 387 -46 518 -77 50 -11 110 -25 135 -29 62 -11
201 -53 285 -85 71 -27 276 -125 285 -136 3 -3 28 -18 55 -34 28 -15 85 -53
128 -84 43 -31 89 -63 101 -71 13 -8 29 -22 38 -30 8 -8 32 -31 54 -50 68 -63
139 -152 198 -250 31 -52 56 -101 56 -108 0 -7 9 -32 20 -55 35 -71 70 -291
70 -435 0 -112 -4 -138 -29 -217 -45 -144 -95 -234 -185 -340 -61 -72 -60 -71
-164 -141 -84 -56 -96 -75 -61 -97 23 -14 109 30 193 100 42 34 66 49 66 39 0
-8 -14 -68 -31 -133 -17 -65 -35 -138 -40 -163 -8 -43 -35 -149 -64 -255 -24
-86 -116 -446 -137 -535 -11 -47 -24 -94 -29 -105 -5 -11 -18 -60 -28 -110
-18 -85 -68 -279 -90 -355 -18 -58 -14 -98 9 -105 12 -4 29 -1 38 6 23 18 146
122 152 130 3 3 42 38 86 77 64 56 86 70 105 66 137 -29 354 -102 473 -159 99
-47 232 -125 303 -177 372 -273 650 -675 776 -1123 49 -171 71 -393 56 -552
-34 -371 -144 -675 -324 -897 -179 -221 -346 -318 -614 -357 -102 -14 -299 -7
-425 16 -92 17 -264 69 -281 86 -5 5 -15 9 -23 9 -28 0 -261 134 -355 204
-234 175 -480 420 -612 610 -199 287 -288 687 -225 1003 17 86 69 227 89 243
3 3 15 21 25 40 22 41 25 44 108 128 110 112 280 211 448 263 63 20 98 23 220
24 122 0 158 -4 228 -23 295 -82 529 -205 762 -400 96 -81 338 -323 419 -420
46 -55 73 -64 94 -30 9 13 -3 32 -60 100 -145 170 -368 384 -538 516 -147 115
-435 249 -660 307 -94 25 -244 36 -332 25 -120 -15 -142 -21 -223 -53 -282
-112 -485 -285 -588 -502 -139 -292 -108 -747 74 -1091 20 -38 43 -82 52 -99
30 -57 170 -240 242 -316 104 -110 166 -170 240 -232 47 -40 90 -76 96 -82 6
-5 23 -19 39 -30 15 -11 39 -29 54 -41 69 -53 265 -168 331 -194 19 -7 40 -17
45 -21 34 -25 260 -89 405 -115 25 -4 123 -8 219 -8 l175 -1 3 -65 c9 -209 33
-860 33 -915 l0 -65 40 0 c47 0 44 -27 30 250 -14 251 -29 791 -23 807 3 7 30
19 61 28 57 17 161 65 240 112 41 24 203 177 248 234 75 93 141 208 208 361
28 64 67 188 98 318 27 112 31 147 35 328 7 255 -14 409 -83 612 -27 78 -130
317 -145 336 -5 6 -21 33 -35 60 -24 44 -102 166 -131 204 -105 137 -243 285
-352 378 -74 64 -167 132 -181 132 -5 0 -10 4 -10 8 0 5 -10 14 -22 21 -13 7
-41 23 -63 36 -38 24 -122 65 -245 122 -69 32 -228 87 -300 103 -30 7 -58 18
-62 23 -4 6 14 36 39 66 281 346 464 846 439 1200 -8 109 -47 294 -75 355 -11
23 -31 68 -46 101 -15 33 -52 99 -81 146 l-54 86 0 145 c0 80 -4 170 -10 199
-63 343 -216 582 -506 791 -36 26 -47 41 -61 87 -9 31 -27 84 -39 118 -13 34
-24 66 -24 72 0 6 -9 30 -19 53 -10 24 -29 70 -41 103 -52 138 -154 343 -246
497 -38 62 -71 115 -74 118 -3 3 -16 22 -29 43 -13 21 -28 43 -35 50 -7 6 -15
19 -19 27 -4 8 -21 33 -38 55 -16 22 -41 56 -54 75 l-24 35 25 90 c53 194 55
208 52 310 -3 89 -7 107 -35 165 -17 36 -42 79 -55 96 -37 50 -137 129 -203
160 -54 25 -73 29 -181 32 -114 3 -125 2 -180 -23 -58 -26 -189 -109 -200
-126 -12 -20 -59 -6 -171 49 -65 31 -136 65 -158 74 -178 75 -466 154 -750
204 -156 28 -169 29 -515 29 -291 0 -377 -3 -475 -18 -363 -55 -606 -119 -830
-219 l-69 -31 -40 49 c-74 91 -220 229 -298 281 -106 71 -162 81 -328 63z
m233 -96 c70 -36 90 -52 211 -169 100 -97 143 -155 131 -176 -4 -5 -28 -19
-53 -31 -101 -47 -373 -226 -483 -318 -88 -74 -143 -124 -157 -142 -7 -10 -19
-18 -27 -18 -17 0 -54 81 -97 208 -30 91 -32 106 -32 247 -1 139 1 154 23 199
35 71 115 163 164 187 63 33 84 37 180 38 76 1 95 -3 140 -25z m3950 -352 c81
-40 159 -123 199 -211 49 -106 48 -151 -5 -353 -12 -47 -26 -90 -30 -94 -4 -4
-55 44 -115 106 -59 62 -155 152 -213 200 -121 99 -273 210 -287 210 -5 0 -17
9 -28 21 -19 21 -19 21 18 53 21 18 70 50 110 70 l73 38 107 -4 c95 -4 113 -8
171 -36z m1448 -3354 c7 -13 15 -25 18 -28 3 -3 21 -34 39 -70 43 -87 87 -218
103 -310 18 -106 16 -316 -5 -424 -31 -160 -102 -368 -169 -491 -6 -11 -23
-45 -39 -75 -87 -168 -257 -389 -394 -510 -128 -114 -128 -114 -119 -55 3 26
10 55 15 64 7 14 54 195 80 311 5 19 25 96 45 170 20 74 43 164 51 200 8 36
21 86 30 111 8 26 19 69 23 95 5 27 26 112 46 189 21 77 48 181 60 230 13 50
37 144 55 210 18 66 35 134 40 152 4 17 17 51 29 75 11 25 28 69 37 99 22 78
22 79 33 79 6 0 16 -10 22 -22z"/>
<path d="M5945 8446 c-119 -54 -154 -228 -66 -328 57 -64 143 -61 213 8 95 93
89 244 -11 311 -38 26 -90 29 -136 9z"/>
<path d="M5133 8173 c-7 -2 -13 -15 -13 -27 0 -23 36 -45 100 -61 166 -43 589
-237 790 -363 263 -166 423 -293 645 -516 168 -168 288 -313 349 -422 9 -16
32 -54 51 -84 202 -324 284 -758 225 -1188 -27 -192 -98 -450 -150 -544 -6
-10 -26 -48 -46 -85 -70 -133 -149 -238 -264 -354 -63 -64 -131 -127 -151
-140 -19 -13 -70 -47 -112 -75 -41 -28 -120 -74 -175 -103 -100 -51 -122 -72
-101 -97 17 -21 42 -17 116 18 60 27 270 152 283 167 3 4 23 20 45 36 106 79
281 268 357 385 37 58 114 204 146 280 72 169 125 410 141 640 23 357 -32 658
-180 975 -28 61 -133 237 -169 285 -14 19 -43 58 -64 85 -57 77 -150 179 -277
305 -125 124 -123 122 -249 223 -47 37 -92 73 -100 80 -42 34 -210 151 -262
182 -199 120 -475 256 -623 307 -33 11 -65 24 -70 29 -6 4 -42 17 -80 27 -39
11 -83 25 -98 31 -30 12 -44 13 -64 4z"/>
<path d="M7395 7742 c-129 -29 -174 -57 -205 -123 -25 -56 -25 -80 0 -129 69
-135 327 -257 655 -310 188 -30 353 -20 480 30 58 22 115 99 115 155 0 108
-179 245 -415 318 -140 43 -279 67 -430 72 -93 4 -138 1 -200 -13z"/>
<path d="M7638 5994 c-7 -7 -12 -53 -5 -54 1 -1 20 -3 42 -6 91 -11 183 -36
235 -64 122 -66 120 -66 130 -50 18 28 10 48 -32 79 -68 50 -191 93 -283 98
-44 3 -83 2 -87 -3z"/>
<path d="M8935 3451 c-62 -8 -82 -19 -129 -72 l-38 -41 4 -87 c3 -80 5 -90 36
-128 56 -72 178 -94 284 -52 67 26 86 43 109 97 44 103 6 221 -88 270 -26 14
-120 21 -178 13z m123 -86 c37 -8 68 -41 77 -82 10 -51 -3 -89 -42 -119 -31
-23 -44 -27 -100 -26 -78 2 -110 16 -134 62 -61 114 42 200 199 165z"/>
<path d="M3253 3400 c-78 -38 -166 -133 -182 -196 -26 -104 -5 -184 69 -255
94 -90 176 -99 312 -36 86 40 126 75 162 141 36 67 35 133 -3 212 -75 153
-212 204 -358 134z m243 -115 c41 -43 53 -63 58 -100 4 -25 4 -55 0 -68 -26
-85 -174 -172 -272 -158 -67 9 -142 92 -142 157 0 72 38 134 118 191 42 30 54
33 117 33 l69 0 52 -55z"/>
<path d="M8309 3411 c-108 -42 -168 -119 -176 -224 -4 -51 -1 -71 15 -103 27
-54 83 -101 128 -110 98 -18 247 22 305 82 34 35 34 36 34 124 0 87 -1 90 -40
147 -68 99 -157 127 -266 84z m174 -98 c53 -56 73 -146 41 -191 -26 -38 -73
-54 -165 -60 -81 -4 -88 -3 -105 18 -11 12 -25 28 -31 35 -21 22 -15 86 10
129 37 61 98 96 167 96 48 0 60 -4 83 -27z"/>
<path d="M4014 3256 c-99 -46 -129 -126 -104 -275 11 -63 17 -78 50 -111 47
-47 113 -64 222 -59 66 4 82 8 120 36 60 44 78 71 87 135 10 73 -6 132 -50
194 -72 100 -210 134 -325 80z m199 -80 c41 -17 70 -50 91 -105 39 -101 -31
-181 -159 -181 -110 0 -147 35 -160 157 -9 73 12 118 60 132 47 14 132 12 168
-3z"/>
<path d="M8634 2976 c-45 -14 -107 -57 -139 -95 -11 -13 -32 -51 -47 -85 -23
-52 -27 -75 -28 -156 0 -218 100 -391 267 -460 74 -31 79 -32 197 -28 99 4
129 9 163 26 23 12 46 22 51 22 23 0 94 81 118 134 25 55 26 66 21 155 -12
200 -127 375 -300 457 -69 33 -89 37 -170 40 -60 3 -107 -1 -133 -10z m229
-90 c99 -35 193 -114 219 -183 7 -18 15 -33 19 -33 11 0 40 -88 49 -148 27
-194 -70 -287 -295 -287 -89 1 -106 4 -152 28 -110 57 -175 160 -195 307 -9
69 -9 101 1 143 37 166 178 235 354 173z"/>
<path d="M3600 2844 c-30 -8 -77 -25 -105 -38 -51 -24 -145 -98 -161 -127 -5
-9 -17 -31 -27 -48 -40 -70 -37 -263 5 -350 32 -64 97 -124 176 -163 61 -30
74 -33 162 -33 88 0 99 2 160 34 38 20 92 61 132 100 59 59 69 76 88 140 46
151 1 318 -114 422 -67 61 -213 90 -316 63z m216 -97 c113 -59 178 -221 140
-350 -43 -147 -235 -268 -362 -228 -16 5 -41 12 -56 15 -14 3 -51 26 -81 51
-43 35 -60 57 -78 102 -29 76 -32 192 -5 245 37 76 140 154 233 178 55 13 172
6 209 -13z"/>
<path d="M8001 2823 c-57 -20 -145 -106 -161 -157 -7 -21 -10 -59 -7 -85 5
-52 42 -154 62 -174 7 -8 45 -24 85 -37 135 -44 261 -7 329 97 27 40 31 55 31
115 0 110 -57 207 -142 243 -47 19 -139 18 -197 -2z m169 -78 c16 -8 42 -32
57 -52 24 -32 28 -45 28 -106 0 -68 -1 -70 -38 -103 -54 -45 -117 -58 -193
-38 -32 8 -63 19 -70 25 -6 5 -19 36 -28 70 -14 47 -15 67 -6 93 12 37 67 94
108 112 38 17 108 17 142 -1z"/>
<path d="M4298 2572 c-70 -25 -120 -71 -140 -130 -22 -61 -22 -93 -3 -158 23
-80 51 -98 150 -103 103 -4 169 16 205 62 21 26 26 44 29 108 3 68 0 82 -23
124 -33 59 -42 67 -94 94 -48 25 -61 25 -124 3z m97 -82 c32 -12 64 -79 65
-133 0 -54 -45 -96 -104 -99 -111 -4 -125 7 -126 99 0 55 3 66 30 97 38 43 84
55 135 36z"/>
</g>
</svg>
