<?xml version="1.0" standalone="no"?>
<!DOCTYPE svg PUBLIC "-//W3C//DTD SVG 20010904//EN"
 "http://www.w3.org/TR/2001/REC-SVG-20010904/DTD/svg10.dtd">
<svg version="1.0" xmlns="http://www.w3.org/2000/svg"
 width="500.000000pt" height="462.000000pt" viewBox="0 0 500.000000 462.000000"
 preserveAspectRatio="xMidYMid meet">

<g transform="translate(0.000000,462.000000) scale(0.100000,-0.100000)"
fill="#000000" stroke="none">
<path d="M3710 4459 c-102 -29 -140 -43 -140 -50 0 -5 -5 -9 -11 -9 -6 0 -33
-16 -59 -35 -26 -19 -52 -35 -57 -35 -6 0 -18 -9 -28 -20 -10 -11 -23 -20 -29
-20 -7 0 -41 -29 -76 -65 -68 -69 -84 -75 -150 -54 -40 12 -202 31 -275 32
-27 0 -79 -5 -115 -12 -36 -7 -96 -16 -135 -20 -40 -5 -86 -17 -108 -30 -21
-11 -47 -21 -58 -21 -11 0 -36 -8 -57 -19 -20 -10 -55 -21 -76 -24 -21 -3 -49
-15 -61 -27 -12 -11 -29 -20 -38 -20 -9 0 -32 -13 -50 -30 -30 -26 -42 -30
-94 -30 -32 0 -64 5 -69 10 -6 6 -75 27 -155 46 -137 34 -150 36 -253 29 -61
-3 -118 -11 -127 -16 -10 -5 -34 -9 -54 -9 -47 0 -104 -30 -145 -76 l-32 -37
6 -96 c7 -117 21 -217 33 -234 5 -6 15 -30 22 -52 8 -22 17 -42 20 -45 4 -3
24 -39 45 -80 59 -117 85 -163 105 -185 36 -39 41 -59 26 -101 -17 -47 -21
-409 -5 -419 6 -3 10 -19 10 -35 0 -29 45 -166 61 -186 5 -6 10 -26 11 -45 l3
-34 -155 -3 c-85 -1 -159 -7 -164 -12 -6 -6 -33 -10 -61 -10 -57 0 -88 18
-144 82 -18 21 -37 38 -43 38 -5 0 -23 13 -41 30 -41 38 -212 90 -296 90 -21
0 -52 5 -69 11 -22 8 -37 7 -54 -1 -31 -17 -78 -61 -78 -75 0 -6 -11 -22 -24
-34 -15 -14 -27 -42 -34 -79 -47 -240 -39 -389 25 -478 44 -63 42 -117 -8
-231 -10 -23 -19 -64 -19 -90 1 -27 0 -59 -1 -73 -1 -14 0 -53 2 -87 4 -60 5
-63 30 -63 l27 0 -1 137 c0 115 3 144 18 173 10 19 22 49 26 65 4 17 13 45 20
62 12 29 11 37 -5 65 -10 18 -30 45 -43 59 -46 50 -59 194 -35 374 12 89 31
142 67 188 l29 36 81 -4 c137 -6 281 -50 333 -102 18 -18 36 -33 41 -33 4 0
14 -12 21 -26 8 -14 27 -32 42 -40 19 -10 28 -22 28 -38 0 -27 20 -39 41 -25
8 5 26 9 40 9 15 0 42 6 61 14 26 11 72 14 201 11 91 -2 175 -9 186 -14 11 -6
35 -11 53 -11 18 -1 44 -7 58 -15 38 -22 63 -18 103 18 89 77 114 95 147 102
19 4 45 14 58 22 46 28 306 60 346 42 86 -39 142 -322 96 -489 -34 -125 -58
-185 -87 -219 -42 -49 -47 -74 -34 -163 8 -52 8 -93 1 -143 -25 -158 -25 -149
9 -162 29 -10 31 -10 37 13 4 14 4 27 1 30 -3 4 -1 18 4 33 14 34 23 114 20
171 -6 129 -5 153 5 157 6 2 17 -11 25 -29 12 -32 54 -95 107 -166 l25 -33
-22 -15 c-29 -21 -25 -58 8 -62 23 -4 137 39 176 65 11 8 49 31 85 52 l65 39
50 -44 c27 -24 68 -52 91 -61 l41 -17 0 -73 c1 -60 5 -80 28 -118 15 -26 38
-50 53 -56 29 -11 104 -4 137 13 31 17 89 69 102 92 10 18 19 21 76 18 117 -6
207 39 207 105 -1 39 -34 108 -77 161 l-36 44 13 56 c7 32 14 63 16 70 2 8 27
13 71 14 37 0 73 2 78 3 6 2 18 3 27 4 22 1 33 38 17 57 -9 11 -23 13 -49 9
l-37 -6 19 73 c25 99 32 181 20 251 -7 47 -6 59 5 66 9 4 13 18 11 32 -3 21
-9 24 -55 27 -29 2 -53 7 -53 11 0 4 21 12 46 18 l46 11 23 -52 c12 -28 48
-130 80 -226 91 -272 146 -397 201 -447 42 -39 44 -44 30 -59 -65 -65 -106
-167 -106 -266 0 -31 -4 -60 -10 -63 -5 -3 -25 6 -44 20 -51 39 -94 42 -160
12 -41 -19 -60 -35 -72 -59 -14 -31 -18 -33 -59 -30 -32 3 -56 -3 -92 -22 -26
-14 -64 -31 -83 -39 -82 -33 -137 -123 -142 -232 -2 -76 21 -198 52 -267 l19
-43 -72 -8 c-84 -8 -148 -3 -272 24 -119 25 -181 52 -295 125 -145 93 -234
198 -336 398 -64 127 -84 138 -144 76 -22 -23 -40 -45 -40 -49 0 -9 -22 -20
-147 -72 -38 -15 -53 -27 -53 -41 0 -37 33 -34 137 15 12 5 34 6 50 3 15 -4
39 -10 53 -13 36 -7 67 -61 75 -130 l6 -59 -48 -40 c-76 -64 -118 -76 -265
-76 -81 -1 -131 -5 -137 -12 -5 -6 -11 -29 -14 -51 -8 -57 -25 -131 -35 -152
-5 -10 -20 -51 -33 -92 -21 -64 -32 -82 -84 -133 -33 -32 -64 -58 -70 -58 -5
0 -32 -11 -60 -24 -150 -71 -215 -86 -336 -81 -146 7 -216 19 -249 44 -17 12
-52 26 -78 31 -53 10 -142 40 -187 64 -16 9 -37 16 -47 16 -9 0 -25 16 -37 36
-13 22 -37 42 -63 54 -50 22 -100 81 -97 113 1 12 -1 38 -5 58 -6 29 -2 44 21
85 18 30 37 50 50 52 12 2 29 12 38 22 19 21 78 18 106 -6 8 -8 21 -14 27 -14
6 0 23 -21 38 -46 18 -30 31 -43 41 -40 8 3 17 6 19 6 14 0 0 69 -19 90 -24
27 -111 80 -132 80 -7 0 -18 7 -25 15 -7 8 -24 15 -39 15 -14 0 -37 7 -51 15
-14 8 -41 22 -60 31 -19 9 -52 35 -72 57 -30 34 -37 50 -38 85 0 53 18 89 64
125 46 36 83 30 157 -24 135 -97 149 -102 149 -54 0 16 -10 31 -28 42 -15 9
-34 24 -44 32 -9 9 -42 31 -73 50 -45 28 -62 45 -85 91 -37 72 -50 83 -84 70
l-27 -10 24 -32 c38 -52 38 -63 5 -97 -17 -17 -34 -31 -38 -31 -5 0 -22 -23
-39 -50 -25 -41 -31 -61 -31 -109 0 -57 1 -59 52 -110 29 -28 77 -63 106 -77
61 -29 67 -52 23 -94 -43 -41 -93 -119 -93 -143 1 -88 6 -114 28 -144 13 -17
24 -36 24 -42 0 -13 49 -51 68 -51 8 0 41 -25 74 -55 32 -30 68 -55 78 -55 10
0 21 -4 24 -9 3 -5 30 -15 58 -21 29 -7 58 -17 64 -21 6 -5 35 -14 64 -19 31
-6 64 -20 78 -33 28 -26 117 -39 282 -39 140 -1 222 17 300 63 8 5 34 18 56
29 23 11 44 27 48 35 3 8 14 15 25 15 11 0 23 4 26 10 4 6 99 10 253 10 236 0
250 1 312 24 119 44 137 55 188 113 28 32 63 65 79 73 15 8 42 25 58 37 17 12
43 26 58 32 15 6 31 21 36 34 11 28 30 37 74 37 31 0 89 -17 114 -33 7 -4 39
-13 70 -19 32 -5 81 -15 108 -21 68 -14 463 -14 550 0 203 34 251 48 314 87
22 14 44 26 49 26 16 0 139 136 155 171 9 20 23 61 30 90 16 60 5 54 170 93
37 9 83 25 102 36 19 11 52 29 73 41 52 28 179 165 203 218 25 56 26 187 2
260 -28 87 -93 149 -173 166 -19 4 -46 15 -60 25 -14 9 -36 20 -49 23 -30 7
-97 -22 -130 -57 -14 -14 -35 -26 -47 -26 -13 0 -39 -10 -59 -21 -39 -23 -93
-22 -122 3 -21 17 -58 77 -68 108 -4 14 -13 39 -20 55 -7 17 -18 46 -25 65 -7
19 -21 54 -31 77 -11 24 -19 49 -19 56 0 8 -3 16 -6 19 -3 3 -28 73 -56 154
-27 82 -53 153 -58 159 -11 14 -6 51 10 70 7 9 32 26 54 37 59 30 185 155 208
206 21 46 34 50 101 31 53 -15 97 -19 97 -9 0 14 -60 30 -110 30 -64 0 -72 13
-47 78 l20 52 73 0 c103 0 105 18 2 22 l-83 3 -6 110 c-8 142 -24 254 -38 268
-6 6 -11 22 -11 35 0 12 -9 40 -19 60 -11 20 -29 71 -41 112 -13 41 -33 96
-46 122 -31 61 -30 75 7 156 17 36 34 85 36 107 3 22 11 54 19 71 19 43 30
169 15 178 -6 4 -11 21 -11 38 0 18 -4 45 -9 62 -6 17 -18 58 -27 91 -9 33
-20 65 -24 70 -3 6 -12 29 -20 52 -23 73 -47 88 -153 90 -51 1 -108 -2 -127
-8z m202 -56 c22 -25 78 -158 93 -223 29 -123 28 -183 -5 -344 -5 -27 -26 -81
-45 -122 -43 -88 -43 -115 -6 -185 16 -30 39 -85 51 -124 12 -38 26 -78 32
-89 17 -32 56 -160 63 -206 14 -92 21 -195 15 -233 -4 -33 -10 -41 -40 -52
-69 -25 -106 -44 -123 -63 -31 -34 -4 -32 71 5 40 20 75 34 78 30 3 -3 1 -22
-6 -41 -9 -29 -17 -36 -38 -36 -45 0 -102 -20 -102 -35 0 -17 13 -19 55 -7 31
9 55 6 55 -8 0 -22 -84 -130 -124 -158 -24 -18 -47 -32 -51 -32 -4 0 -21 -10
-38 -22 -18 -13 -48 -31 -67 -41 -19 -10 -55 -28 -80 -41 -65 -35 -155 -53
-176 -35 -14 11 -10 16 34 38 107 56 203 149 258 253 l39 73 -1 160 c-1 137
-4 169 -23 219 -11 33 -21 69 -21 82 0 27 -59 167 -93 220 -13 22 -73 87 -133
145 -90 87 -123 112 -189 143 -44 21 -88 42 -97 47 -25 13 -125 44 -185 59
-79 18 -237 20 -323 3 -41 -8 -97 -18 -125 -23 -64 -11 -163 -38 -195 -54 -14
-7 -63 -32 -110 -55 -95 -47 -197 -112 -252 -163 -60 -54 -160 -189 -181 -243
-10 -27 -22 -54 -26 -60 -39 -55 -80 -293 -66 -381 22 -138 41 -217 65 -270
32 -72 30 -79 -39 -123 -27 -18 -52 -39 -55 -47 -5 -12 -10 -13 -28 -3 -13 7
-39 15 -58 19 -31 5 -39 12 -67 69 -33 66 -54 126 -80 221 -22 80 -23 335 -3
425 22 96 18 107 -71 218 -27 33 -33 43 -87 148 -64 124 -76 169 -90 353 -8
105 1 124 71 150 87 32 334 48 394 25 13 -5 36 -9 50 -9 30 0 102 -22 200 -63
l73 -30 67 44 c63 41 85 54 131 78 9 5 49 19 87 31 39 12 97 32 130 45 65 26
195 50 315 60 74 6 236 -11 348 -37 l53 -12 57 57 c57 57 100 91 156 123 16 9
50 31 76 49 60 42 147 73 235 84 110 13 131 13 147 -6z m-790 -697 c87 -23
253 -92 303 -126 62 -43 193 -173 231 -230 42 -62 94 -184 94 -219 0 -16 8
-48 17 -72 13 -34 17 -79 17 -194 1 -148 0 -151 -29 -204 -45 -82 -162 -193
-235 -224 -88 -37 -110 -40 -133 -19 -39 35 -105 71 -151 83 -59 15 -175 -10
-266 -57 -88 -46 -113 -69 -149 -141 -30 -61 -31 -61 -64 -53 -23 5 -53 1 -96
-12 -35 -11 -69 -17 -76 -15 -6 3 -15 27 -18 54 -4 26 -9 57 -11 68 -3 11 -5
29 -5 41 -1 11 -19 49 -41 83 -56 86 -91 101 -220 91 -116 -9 -202 -26 -255
-51 l-40 -19 -28 62 c-29 62 -38 101 -57 232 -26 184 35 400 157 555 68 85 94
109 193 176 84 57 263 145 309 152 20 3 45 10 55 16 10 5 46 13 80 18 34 5 79
13 101 18 52 13 250 5 317 -13z m143 -1290 c65 -30 81 -48 59 -67 -10 -8 -25
-32 -35 -53 -13 -29 -26 -42 -50 -50 -73 -24 -95 -103 -54 -190 10 -20 15 -48
12 -64 -7 -38 13 -93 47 -133 25 -29 38 -35 105 -46 116 -18 205 -47 209 -67
2 -10 -3 -39 -12 -66 -9 -27 -16 -54 -16 -59 0 -6 18 -30 41 -53 45 -46 79
-106 79 -137 0 -36 -54 -54 -152 -53 l-86 1 -38 -45 c-47 -58 -89 -84 -134
-84 -29 0 -39 6 -54 31 -18 31 -25 125 -12 166 8 24 -16 46 -66 62 -45 15
-113 63 -128 92 -10 17 -8 25 8 42 11 12 27 36 36 54 8 17 35 42 58 55 86 47
116 160 63 239 -14 22 -37 45 -50 51 -17 7 -25 19 -25 35 0 31 -32 92 -62 119
-26 24 -111 50 -127 39 -17 -10 -13 12 8 53 42 81 169 151 276 152 32 0 68 -9
100 -24z m189 -110 c18 -7 42 -26 53 -42 19 -25 28 -28 98 -33 l78 -6 14 -55
c8 -32 12 -78 10 -110 -7 -78 -37 -213 -51 -226 -17 -17 -159 0 -205 24 -23
12 -58 20 -89 20 -58 1 -86 20 -103 69 -7 23 -7 38 0 52 16 29 13 52 -8 75
-34 37 -36 72 -6 102 16 16 33 24 45 21 29 -8 63 21 56 48 -7 28 27 75 55 75
11 0 34 -6 53 -14z m-672 -153 l28 -27 28 20 c41 30 58 34 94 22 51 -17 63
-33 68 -100 5 -60 6 -62 37 -70 97 -25 95 -156 -3 -204 -22 -11 -49 -36 -64
-60 -68 -110 -89 -130 -197 -188 -36 -20 -59 -27 -77 -22 -34 8 -104 97 -151
189 -38 75 -38 77 -26 130 9 42 21 63 56 97 44 43 45 45 45 110 1 53 5 70 24
91 42 48 96 53 138 12z m1736 -498 c17 -14 51 -29 76 -34 26 -5 55 -16 65 -25
50 -45 85 -207 61 -283 -24 -79 -44 -110 -109 -166 -77 -67 -164 -111 -276
-138 -102 -24 -115 -24 -115 1 0 35 -38 122 -66 151 -15 16 -43 34 -61 40
l-34 11 6 56 c9 85 26 143 53 185 26 38 42 47 42 23 0 -8 10 -27 23 -41 29
-34 62 -26 52 14 -17 67 -16 87 3 111 15 19 29 23 73 24 50 1 54 3 57 26 2 17
15 32 40 47 50 28 75 28 110 -2z m-603 -492 c25 -41 36 -45 70 -27 47 24 102
14 132 -25 25 -32 53 -142 47 -184 -9 -63 -52 -168 -82 -201 -36 -38 -140
-107 -177 -117 -166 -45 -291 -69 -357 -69 -61 0 -94 53 -133 217 -8 37 -12
82 -8 115 6 58 42 132 73 148 18 10 20 7 20 -23 0 -36 32 -87 55 -87 7 0 18 7
25 15 9 11 8 19 -4 37 -20 28 -20 51 -1 87 21 41 66 55 110 34 44 -21 61 -13
76 38 24 80 115 104 154 42z m-1545 -80 c12 -27 30 -64 40 -83 20 -38 26 -65
11 -56 -5 3 -23 31 -40 61 -17 30 -35 55 -39 55 -5 0 -17 6 -27 14 -19 14 -19
15 -1 35 11 12 22 21 26 21 4 0 17 -21 30 -47z m110 -202 c0 -18 166 -184 222
-223 l60 -40 -29 -30 c-15 -16 -41 -37 -58 -45 -16 -8 -39 -23 -50 -33 -43
-37 -52 -33 -83 35 -42 89 -64 101 -176 97 -52 -2 -104 -9 -125 -19 -50 -21
-155 -44 -224 -49 l-58 -3 6 32 c4 18 9 34 11 36 2 2 54 5 116 6 130 4 181 19
260 81 53 42 78 79 78 117 0 12 5 28 12 35 14 14 38 16 38 3z m-25 -312 c6 -4
21 -28 34 -53 l25 -44 -19 -44 c-10 -24 -25 -51 -33 -61 -17 -19 -113 -67
-135 -67 -8 0 -31 -7 -51 -15 -25 -11 -70 -16 -134 -16 -127 -1 -271 7 -279
15 -3 3 6 32 21 65 14 32 26 66 26 75 0 9 6 32 14 51 14 33 15 33 88 38 101 5
193 24 241 48 23 12 51 19 66 16 14 -2 37 -1 51 3 26 8 68 3 85 -11z"/>
<path d="M3342 3093 c-89 -43 -101 -162 -23 -222 47 -36 122 -37 168 -2 83 62
64 185 -34 227 -42 18 -70 17 -111 -3z"/>
<path d="M2297 2859 c-43 -23 -67 -67 -67 -125 0 -100 102 -152 207 -105 52
24 77 68 70 123 -14 105 -116 157 -210 107z"/>
<path d="M2875 2775 c-28 -27 -32 -66 -10 -85 24 -20 18 -32 -35 -85 -52 -51
-60 -74 -35 -95 22 -19 50 -3 104 57 l50 55 29 -20 c16 -12 50 -27 76 -34 40
-11 48 -10 62 4 27 27 9 54 -49 73 -68 22 -78 31 -67 59 10 27 -11 80 -35 90
-33 12 -66 6 -90 -19z"/>
<path d="M1285 2124 c-160 -16 -323 -87 -423 -184 -76 -74 -146 -194 -172
-294 -17 -69 -18 -88 -9 -189 6 -62 17 -123 24 -137 7 -14 15 -38 19 -55 8
-30 66 -111 110 -152 55 -52 235 -112 401 -133 224 -29 577 -1 680 54 17 9 33
16 37 16 18 0 101 65 132 103 48 60 67 102 83 182 27 143 12 280 -43 390 -64
130 -120 197 -234 284 -45 34 -117 69 -185 91 -46 15 -98 21 -220 24 -88 2
-178 2 -200 0z m390 -75 c38 -12 82 -30 96 -40 15 -10 32 -19 38 -19 6 0 26
-13 44 -30 19 -16 39 -30 44 -30 15 0 77 -71 127 -147 27 -40 59 -107 73 -150
22 -69 24 -91 21 -188 -4 -96 -8 -117 -32 -165 -44 -84 -92 -135 -163 -171
-211 -107 -690 -108 -971 0 -68 25 -162 132 -185 207 -25 87 -38 236 -25 298
31 149 150 303 285 369 43 22 85 43 94 47 28 15 143 39 194 42 129 7 292 -3
360 -23z"/>
<path d="M984 1562 c-93 -58 -51 -182 61 -182 27 0 44 8 67 30 27 27 30 36 25
72 -11 78 -89 119 -153 80z"/>
<path d="M1753 1545 c-31 -13 -63 -59 -63 -90 0 -29 28 -71 55 -83 47 -21 94
-15 126 17 48 49 30 129 -36 157 -41 17 -42 17 -82 -1z"/>
<path d="M1375 1406 c-13 -9 -18 -24 -17 -53 2 -40 1 -41 -55 -69 -31 -16 -58
-34 -60 -41 -5 -13 72 -50 134 -64 29 -6 57 -6 86 2 23 6 58 14 77 17 50 10
48 41 -5 65 -64 30 -76 45 -69 87 10 59 -43 92 -91 56z"/>
<path d="M440 1391 c0 -26 24 -70 41 -74 10 -3 17 -1 13 4 -3 5 0 9 5 9 12 0
14 29 5 54 -6 17 -64 23 -64 7z"/>
<path d="M2347 1268 c-6 -38 0 -46 33 -50 22 -3 25 1 28 31 4 35 -9 51 -39 51
-11 0 -18 -11 -22 -32z"/>
<path d="M1150 921 c-70 -37 -101 -153 -62 -231 10 -21 34 -44 59 -58 41 -23
42 -24 27 -47 -8 -13 -22 -48 -30 -77 -12 -46 -12 -58 0 -88 8 -19 17 -47 20
-63 9 -39 59 -92 79 -84 23 9 21 33 -3 64 -11 14 -20 36 -20 50 0 13 -7 34
-15 46 -27 42 20 147 66 147 10 0 21 5 25 11 4 7 27 8 68 4 50 -6 66 -12 88
-36 15 -16 32 -29 37 -29 6 0 13 -12 17 -27 12 -55 45 -113 64 -113 34 0 40
49 10 87 -11 14 -20 34 -20 45 0 25 -94 116 -128 124 -53 11 -53 11 -32 46 42
69 14 176 -59 225 -44 30 -140 32 -191 4z"/>
</g>
</svg>
