<?xml version="1.0" standalone="no"?>
<!DOCTYPE svg PUBLIC "-//W3C//DTD SVG 20010904//EN"
 "http://www.w3.org/TR/2001/REC-SVG-20010904/DTD/svg10.dtd">
<svg version="1.0" xmlns="http://www.w3.org/2000/svg"
 width="476.000000pt" height="476.000000pt" viewBox="0 0 476.000000 476.000000"
 preserveAspectRatio="xMidYMid meet">
<metadata>
Created by potrace 1.16, written by Peter Selinger 2001-2019
</metadata>
<g transform="translate(0.000000,476.000000) scale(0.100000,-0.100000)"
fill="#000000" stroke="none">
<path d="M2085 3154 c-69 -17 -129 -50 -164 -90 l-38 -44 -74 10 c-166 21
-428 9 -614 -30 -174 -36 -410 -128 -522 -204 l-36 -25 -47 42 c-54 48 -106
67 -186 67 -144 0 -261 -78 -310 -207 -23 -60 -15 -173 17 -237 22 -45 81
-108 109 -118 9 -3 3 -31 -23 -108 -20 -58 -43 -143 -52 -190 -23 -122 -29
-334 -15 -470 7 -63 15 -191 19 -285 9 -200 25 -254 98 -335 77 -86 188 -136
326 -147 42 -3 77 -7 77 -9 0 -1 -24 -37 -54 -78 -69 -96 -98 -171 -103 -261
-3 -61 0 -77 24 -125 40 -79 83 -102 183 -97 41 2 81 5 88 8 11 3 14 -18 12
-103 l-1 -108 34 0 34 0 7 136 c6 115 10 141 28 164 22 31 21 58 -4 74 -14 8
-26 1 -66 -41 -39 -41 -58 -53 -99 -61 -60 -13 -89 -7 -125 26 -77 71 -56 208
56 364 65 92 83 106 140 110 52 3 74 22 63 52 -6 14 -27 16 -158 16 -209 0
-306 27 -392 109 -73 69 -98 148 -97 309 0 59 -4 136 -10 172 -5 36 -13 133
-16 215 -11 255 26 450 121 650 154 321 483 546 930 635 202 41 539 38 710 -5
73 -18 197 -66 192 -74 -29 -52 -50 -116 -54 -165 -6 -66 -24 -96 -57 -96 -72
-1 -166 -87 -188 -173 -15 -59 -18 -431 -5 -582 l7 -90 -46 -28 c-48 -28 -54
-50 -21 -71 13 -8 24 -7 49 7 17 10 33 16 35 13 4 -3 14 -43 53 -194 4 -17 27
-71 51 -120 34 -70 59 -103 128 -172 56 -56 109 -98 151 -120 l64 -33 -57 -19
c-129 -42 -205 -113 -228 -212 -36 -164 68 -247 324 -258 l58 -3 18 -65 c27
-92 76 -296 107 -447 3 -19 11 -23 39 -23 19 0 35 4 35 9 0 41 -121 536 -140
571 -7 14 -29 18 -112 23 -104 7 -183 25 -224 52 -34 22 -48 74 -34 127 25 91
81 132 255 185 85 26 101 28 265 27 104 -1 219 -8 285 -18 61 -9 140 -20 178
-26 37 -5 86 -14 110 -19 140 -32 272 -43 482 -43 184 0 232 4 293 20 l72 19
32 -51 c60 -98 130 -232 172 -331 65 -151 64 -142 14 -157 -50 -15 -124 -83
-134 -124 -5 -20 -2 -31 11 -40 17 -12 24 -8 69 40 75 79 142 93 223 44 99
-59 98 -211 -3 -270 -16 -10 -55 -22 -85 -27 -51 -8 -48 -9 47 -10 l102 -1 32
36 c17 20 36 47 41 61 15 40 10 125 -10 169 -22 49 -92 111 -141 124 -34 9
-37 14 -70 102 -42 114 -151 333 -207 415 -29 42 -40 68 -36 82 3 12 10 21 15
21 19 0 154 64 197 93 120 82 205 217 237 377 52 261 -48 744 -208 999 l-27
43 27 41 c39 59 44 165 10 239 -53 114 -133 168 -248 168 -76 0 -121 -12 -167
-46 l-32 -24 -78 34 c-175 77 -330 111 -568 128 -248 16 -490 -19 -684 -100
-69 -29 -75 -30 -98 -15 -13 9 -30 28 -38 42 -21 42 -86 101 -140 129 -49 25
-159 39 -210 26z m182 -87 c39 -21 83 -60 83 -76 0 -19 -60 -12 -92 11 -43 30
-159 37 -208 11 -38 -19 -80 -19 -80 1 0 14 50 46 100 63 46 16 157 10 197
-10z m1178 -81 c533 -92 851 -388 990 -921 73 -281 71 -538 -5 -703 -59 -127
-210 -246 -363 -286 -147 -38 -686 -46 -977 -15 -58 7 -237 13 -398 14 l-293
2 -93 46 c-149 74 -258 204 -316 375 -30 91 -66 269 -80 402 -15 135 -9 455
10 515 7 22 30 57 51 79 38 37 41 38 87 31 93 -14 107 -12 110 13 2 13 -3 25
-12 28 -28 11 -18 27 61 101 188 177 409 281 698 329 99 17 413 11 530 -10z
m-2965 -186 c34 -9 90 -52 90 -69 0 -20 -33 -19 -61 2 -24 17 -44 22 -92 22
-78 0 -130 -25 -174 -83 -52 -69 -45 -163 18 -228 26 -27 28 -32 15 -49 -13
-19 -15 -18 -50 8 -50 38 -69 80 -73 162 -4 64 -1 75 27 122 58 100 181 146
300 113z"/>
<path d="M2246 2113 c-11 -12 -6 -38 34 -163 47 -146 65 -222 80 -345 11 -83
22 -111 42 -99 13 8 9 101 -7 194 -13 72 -28 132 -62 242 -6 21 27 31 107 32
49 1 55 3 58 23 3 17 -4 26 -25 34 -28 11 -124 8 -154 -5 -12 -5 -20 4 -33 38
-18 47 -29 60 -40 49z"/>
<path d="M3132 2071 c-35 -17 -43 -25 -40 -43 3 -20 8 -23 38 -20 19 2 68 5
109 6 58 1 77 5 85 19 30 48 -110 76 -192 38z"/>
<path d="M2868 2000 c-16 -24 -31 -25 -69 -3 -26 16 -29 16 -47 0 -22 -20 -36
-21 -62 -5 -14 9 -22 10 -31 1 -15 -15 -2 -51 20 -58 12 -4 21 -20 25 -47 12
-72 41 -126 79 -144 65 -31 137 3 137 64 0 13 -7 48 -16 77 -14 50 -14 56 2
80 13 20 14 28 4 40 -17 20 -27 19 -42 -5z m-52 -66 c20 -5 34 -35 48 -105 12
-56 -60 -65 -88 -11 -12 23 -21 84 -17 115 1 8 27 9 57 1z"/>
<path d="M814 1630 c-39 -15 -64 -59 -64 -109 1 -73 42 -111 123 -111 54 0 91
26 107 75 16 49 4 89 -36 125 -36 31 -84 39 -130 20z"/>
<path d="M1501 1626 c-6 -7 -9 -21 -5 -30 7 -19 -7 -20 -54 -4 -32 12 -35 11
-54 -15 -24 -32 -44 -35 -51 -6 -8 29 -41 21 -45 -12 -2 -17 6 -33 26 -51 21
-18 31 -38 35 -72 8 -56 40 -122 66 -136 11 -5 38 -10 60 -10 76 0 100 73 67
200 -9 34 -11 59 -5 65 13 13 11 59 -3 73 -15 15 -23 15 -37 -2z m-19 -110 c4
-6 13 -35 19 -64 16 -68 4 -107 -31 -107 -30 0 -56 42 -69 111 -8 40 -6 52 6
66 17 19 61 15 75 -6z"/>
</g>
</svg>
