<?xml version="1.0" standalone="no"?>
<!DOCTYPE svg PUBLIC "-//W3C//DTD SVG 20010904//EN"
 "http://www.w3.org/TR/2001/REC-SVG-20010904/DTD/svg10.dtd">
<svg version="1.0" xmlns="http://www.w3.org/2000/svg"
 width="472.000000pt" height="472.000000pt" viewBox="0 0 472.000000 472.000000"
 preserveAspectRatio="xMidYMid meet">
<metadata>
Created by potrace 1.16, written by Peter Selinger 2001-2019
</metadata>
<g transform="translate(0.000000,472.000000) scale(0.100000,-0.100000)"
fill="#000000" stroke="none">
<path d="M2685 4325 c-118 -17 -162 -27 -272 -66 -88 -31 -170 -69 -216 -102
-16 -10 -47 -24 -70 -29 -61 -13 -173 -58 -240 -95 -33 -18 -61 -33 -63 -33
-24 0 -180 -144 -218 -200 -39 -60 -7 -106 120 -172 l61 -32 -17 -65 c-10 -36
-23 -104 -30 -151 -6 -47 -19 -105 -27 -130 -45 -136 -54 -261 -28 -382 43
-205 193 -360 388 -400 31 -7 57 -15 57 -18 0 -3 -26 -28 -58 -55 -32 -28 -83
-81 -113 -118 -75 -95 -77 -97 -107 -97 -34 0 -99 -31 -135 -63 -18 -17 -50
-29 -95 -37 -80 -15 -235 -70 -312 -112 -59 -32 -142 -92 -201 -145 -20 -18
-74 -52 -120 -75 -112 -56 -234 -174 -278 -269 -38 -82 -49 -143 -30 -166 19
-22 88 -53 122 -53 l28 0 -6 -77 c-4 -43 -14 -114 -23 -158 -11 -53 -17 -127
-17 -218 l0 -137 -63 -21 c-35 -12 -82 -35 -105 -53 -104 -79 -80 -223 44
-256 61 -17 226 -7 323 20 l79 21 96 -25 c233 -61 497 -81 946 -72 182 3 362
9 402 12 l71 7 16 -30 c54 -106 215 -103 514 9 57 21 130 52 162 68 39 20 96
36 180 50 421 72 843 256 927 405 40 70 26 152 -36 210 -28 26 -41 30 -101 33
-66 4 -70 6 -76 31 -22 106 -96 228 -174 290 -27 22 -55 41 -62 43 -7 3 -1 20
20 50 66 96 77 138 76 298 0 128 -3 154 -26 225 -31 95 -91 225 -146 315 l-40
65 56 15 c79 22 156 66 223 128 69 63 108 122 148 223 44 110 62 205 67 364 3
76 6 140 7 140 1 1 31 7 66 13 35 6 85 22 110 34 39 20 46 28 49 56 15 152
-229 448 -468 568 -30 15 -89 58 -131 95 -175 154 -392 256 -654 310 -134 27
-456 35 -600 14z m417 -55 c198 -19 388 -70 533 -142 99 -50 219 -133 279
-192 32 -32 78 -66 108 -79 103 -46 230 -146 320 -252 57 -67 120 -180 132
-237 6 -24 2 -28 -42 -42 -26 -8 -77 -20 -114 -26 -37 -6 -74 -13 -82 -16 -18
-7 -21 -40 -5 -50 17 -10 5 -292 -16 -373 -28 -116 -88 -226 -158 -295 -105
-103 -220 -146 -403 -149 -91 -2 -108 -5 -118 -20 -20 -33 16 -47 119 -47 l90
0 42 -67 c170 -279 220 -512 151 -702 -19 -53 -37 -79 -98 -141 -61 -63 -92
-85 -163 -119 -48 -23 -92 -39 -98 -36 -14 9 -49 -4 -49 -18 0 -7 11 -39 25
-72 31 -75 33 -143 4 -178 -102 -130 -394 67 -392 264 1 55 13 81 65 135 26
27 37 46 32 57 -8 23 -47 21 -69 -3 -21 -24 -35 -26 -35 -5 0 16 -68 163 -97
209 -13 21 -15 30 -6 33 29 10 115 88 148 133 39 54 42 83 9 88 -16 2 -31 -10
-58 -47 -75 -102 -182 -161 -307 -169 -245 -15 -302 153 -75 220 112 33 189
104 156 143 -18 21 -22 19 -67 -24 -25 -25 -56 -43 -84 -51 -24 -6 -53 -14
-64 -19 -13 -5 -41 0 -85 16 -112 42 -239 72 -385 90 -109 14 -143 21 -153 35
-15 21 -84 58 -107 58 -24 0 -18 11 39 78 59 70 191 176 231 186 18 5 25 13
25 30 0 27 -16 36 -68 36 -59 0 -172 28 -227 55 -107 52 -185 146 -226 271
-32 98 -32 254 0 339 12 33 29 101 36 152 46 302 141 513 301 668 221 214 589
314 1006 275z m-1072 -250 c0 -5 -4 -10 -9 -10 -19 0 -116 -142 -164 -240 -28
-58 -52 -106 -53 -108 -4 -6 -118 59 -137 78 -18 16 -16 19 33 73 63 70 122
113 231 172 89 47 99 51 99 35z m-24 -1916 c101 -48 10 -134 -142 -134 -105 0
-138 23 -114 80 25 61 174 93 256 54z m261 -84 c97 -13 262 -52 318 -75 32
-14 36 -19 23 -26 -9 -5 -24 -29 -33 -53 -55 -144 140 -264 344 -211 l65 17
18 -24 c24 -31 81 -150 102 -213 15 -42 15 -56 5 -93 -16 -56 -6 -130 27 -200
21 -45 27 -76 30 -147 5 -109 8 -117 36 -113 21 3 23 9 26 65 l3 62 41 -29
c86 -62 201 -86 271 -56 42 18 81 62 98 108 13 37 8 81 -17 173 -4 17 3 23 46
38 28 10 86 42 129 72 l79 53 31 -19 c89 -54 169 -182 196 -314 9 -44 20 -84
25 -88 11 -12 50 1 50 18 0 14 30 25 68 25 37 0 82 -52 82 -95 0 -72 -60 -130
-219 -213 -191 -100 -403 -168 -666 -216 -114 -20 -159 -33 -239 -70 -191 -89
-393 -145 -479 -132 -52 8 -87 41 -87 83 0 74 45 100 373 215 19 7 27 17 27
34 0 14 -7 27 -15 30 -17 7 -249 -73 -323 -110 -50 -26 -101 -75 -126 -125
l-15 -28 -167 -6 c-251 -10 -694 -8 -840 3 -428 34 -636 125 -690 302 -24 81
-25 265 -1 318 8 20 18 77 20 130 15 265 98 475 254 640 110 117 270 208 448
254 78 21 95 20 95 -3 0 -11 11 -33 25 -49 32 -38 105 -57 189 -49 111 11 179
46 212 109 12 22 19 26 46 23 18 -3 70 -9 115 -15z m-1287 -354 c0 -3 -15 -30
-34 -61 -27 -45 -81 -188 -103 -274 -4 -14 -34 -11 -86 8 l-27 11 20 52 c27
72 84 152 143 202 27 22 54 46 61 53 11 12 26 17 26 9z m-155 -1093 c27 -51
82 -111 119 -130 l31 -16 -30 -9 c-140 -38 -292 -29 -314 18 -29 65 -1 106
102 148 34 13 64 25 67 25 3 1 14 -16 25 -36z"/>
<path d="M2210 3537 c0 -7 18 -31 40 -52 31 -30 43 -36 52 -27 9 9 3 21 -27
52 -39 40 -65 51 -65 27z"/>
<path d="M2958 3444 c-58 -36 -72 -54 -42 -54 23 0 123 63 124 78 0 20 -22 14
-82 -24z"/>
<path d="M2154 3416 c-91 -40 -84 -165 10 -196 27 -9 42 -8 68 3 42 18 58 37
64 79 14 84 -66 148 -142 114z"/>
<path d="M3024 3360 c-65 -26 -84 -117 -36 -170 83 -94 232 3 179 116 -25 51
-90 76 -143 54z"/>
<path d="M2545 3270 c-3 -5 -26 -10 -51 -10 -37 0 -44 -3 -44 -20 0 -11 7 -20
15 -20 12 0 15 -14 15 -63 0 -136 42 -272 88 -284 49 -12 75 60 85 240 2 37 6
68 8 70 2 1 13 7 24 13 11 6 22 19 23 28 3 15 -2 17 -40 11 -38 -6 -46 -3 -67
19 -26 27 -46 33 -56 16z m39 -62 l28 -13 -6 -105 c-6 -108 -16 -165 -31 -165
-14 0 -35 76 -47 171 -15 125 -7 140 56 112z"/>
<path d="M2449 1583 c-10 -12 -14 -45 -13 -119 2 -126 18 -225 47 -284 l22
-45 90 0 c82 0 97 3 158 33 71 35 172 120 182 153 6 19 -9 49 -25 49 -4 0 -32
-24 -62 -54 -65 -64 -162 -113 -241 -122 -55 -7 -57 -6 -68 22 -22 56 -39 170
-39 265 0 60 -4 99 -12 107 -16 16 -23 15 -39 -5z"/>
<path d="M1340 1151 c0 -16 -7 -34 -15 -41 -17 -14 -20 -40 -5 -40 16 0 60 47
60 64 0 25 -12 46 -26 46 -9 0 -14 -11 -14 -29z"/>
<path d="M1897 1143 c-14 -13 -7 -51 14 -77 17 -21 29 -26 65 -26 38 0 45 3
42 18 -3 13 -12 16 -35 14 -33 -3 -63 25 -63 60 0 18 -11 24 -23 11z"/>
<path d="M1184 1031 c-37 -16 -64 -60 -64 -105 0 -60 43 -101 106 -101 39 0
50 5 75 33 39 44 40 99 2 142 -30 33 -82 46 -119 31z"/>
<path d="M2031 974 c-48 -40 -51 -102 -7 -158 10 -12 32 -21 64 -24 41 -3 52
0 79 22 37 31 48 75 29 120 -29 69 -108 88 -165 40z"/>
<path d="M1450 865 c-19 -23 -2 -67 32 -83 22 -10 33 -10 69 5 32 12 44 14 47
5 6 -20 58 -42 96 -42 40 0 79 39 74 74 -4 28 -41 28 -46 1 -2 -11 -8 -24 -12
-29 -14 -15 -59 3 -87 34 -31 35 -37 36 -70 10 -36 -28 -61 -26 -65 7 -4 32
-20 40 -38 18z"/>
</g>
</svg>
