<?xml version="1.0" standalone="no"?>
<!DOCTYPE svg PUBLIC "-//W3C//DTD SVG 20010904//EN"
 "http://www.w3.org/TR/2001/REC-SVG-20010904/DTD/svg10.dtd">
<svg version="1.0" xmlns="http://www.w3.org/2000/svg"
 width="1300.000000pt" height="649.000000pt" viewBox="0 0 1300.000000 649.000000"
 preserveAspectRatio="xMidYMid meet">

<g transform="translate(0.000000,649.000000) scale(0.100000,-0.100000)"
fill="#000000" stroke="none">
<path d="M9921 5191 c-21 -21 -58 -91 -81 -151 -7 -19 -33 -78 -58 -130 -42
-86 -46 -104 -50 -182 -4 -76 -1 -92 20 -140 14 -29 34 -64 45 -77 19 -23 19
-25 2 -104 -10 -44 -20 -112 -23 -151 -4 -39 -8 -98 -11 -131 -3 -33 -18 -103
-35 -155 -17 -53 -34 -129 -37 -171 l-6 -76 -95 -32 c-232 -77 -483 -220 -817
-468 -117 -87 -254 -178 -309 -205 l-46 -22 -16 24 c-9 14 -50 58 -91 98 -54
52 -98 83 -157 112 -77 38 -178 70 -219 70 -11 0 -32 11 -49 25 -89 75 -299
48 -349 -45 -20 -37 -25 -94 -10 -133 8 -22 1 -32 -72 -104 -45 -44 -109 -102
-142 -128 -33 -27 -64 -53 -69 -57 -6 -4 -1 -17 10 -30 l19 -23 -23 19 -23 20
-40 -40 c-98 -93 -176 -232 -205 -360 l-16 -74 -47 0 c-93 0 -143 -60 -143
-171 0 -68 16 -122 48 -165 20 -27 22 -39 17 -86 -11 -105 54 -249 137 -304
47 -31 122 -42 171 -25 31 11 35 9 73 -28 202 -193 484 -241 1031 -176 314 37
344 35 852 -55 516 -91 984 -100 1270 -25 117 31 183 64 249 127 l52 49 179
14 c241 20 476 43 543 55 30 5 105 14 165 20 353 36 535 93 651 203 78 75 94
124 94 278 0 195 -40 318 -116 354 -43 20 -77 19 -125 -6 -36 -18 -43 -19 -57
-6 -10 8 -62 52 -117 98 -55 46 -100 86 -99 89 0 3 6 19 14 35 40 85 -1 339
-62 390 -42 36 -107 34 -184 -5 -32 -16 -60 -30 -61 -30 -2 0 -17 28 -34 63
-143 285 -459 552 -769 648 -41 13 -76 24 -78 25 -2 1 7 20 19 43 23 44 23 45
3 226 -5 49 -3 63 10 74 9 7 16 20 16 28 0 13 -3 13 -17 2 -17 -13 -17 -13 -1
7 15 17 16 23 5 36 -32 41 -88 26 -118 -32 -22 -41 -27 -136 -6 -124 9 6 9 4
1 -7 -8 -10 -9 -31 -1 -75 10 -61 6 -94 -12 -94 -5 0 -12 15 -16 33 -4 17 -13
46 -20 62 -36 82 -55 151 -70 255 -9 63 -29 152 -44 198 l-27 82 21 20 c12 12
35 47 50 78 24 47 30 76 36 172 5 63 13 135 18 160 13 59 14 156 1 181 -21 38
-81 20 -178 -54 l-53 -40 -36 17 c-19 9 -54 19 -77 22 -38 6 -44 10 -64 53
-27 60 -76 127 -101 141 -17 8 -25 6 -40 -9z m-11 -496 c31 -16 65 -69 55 -85
-11 -18 -30 -10 -48 21 -9 17 -26 33 -37 36 -11 3 -20 14 -20 24 0 23 12 24
50 4z m365 -105 c0 -10 -14 -17 -40 -22 -22 -3 -50 -9 -61 -13 -33 -10 -37 11
-7 35 32 25 108 25 108 0z m-210 -64 c16 -12 17 -16 6 -30 -19 -22 -58 -20
-71 4 -6 11 -8 25 -5 30 9 14 48 12 70 -4z m20 -151 c50 0 106 3 125 7 l35 8
-29 -24 c-80 -66 -216 -58 -286 19 l-25 27 45 -19 c32 -13 71 -18 135 -18z
m545 -288 c0 -2 -15 -16 -32 -33 l-33 -29 29 33 c28 30 36 37 36 29z m-820
-32 c13 -14 21 -25 18 -25 -2 0 -15 11 -28 25 -13 14 -21 25 -18 25 2 0 15
-11 28 -25z m80 -80 c13 -14 21 -25 18 -25 -2 0 -15 11 -28 25 -13 14 -21 25
-18 25 2 0 15 -11 28 -25z m80 -80 c13 -14 21 -25 18 -25 -2 0 -15 11 -28 25
-13 14 -21 25 -18 25 2 0 15 -11 28 -25z m490 22 c0 -2 -12 -14 -27 -28 l-28
-24 24 28 c23 25 31 32 31 24z m-410 -102 c13 -14 21 -25 18 -25 -2 0 -15 11
-28 25 -13 14 -21 25 -18 25 2 0 15 -11 28 -25z m330 22 c0 -2 -12 -14 -27
-28 l-28 -24 24 28 c23 25 31 32 31 24z m-250 -102 c13 -14 21 -25 18 -25 -2
0 -15 11 -28 25 -13 14 -21 25 -18 25 2 0 15 -11 28 -25z m170 22 c0 -2 -12
-14 -27 -28 l-28 -24 24 28 c23 25 31 32 31 24z m-82 -76 c15 13 16 12 3 -3
-11 -15 -11 -21 0 -35 13 -16 12 -17 -3 -4 -15 11 -21 11 -35 0 -16 -13 -17
-12 -4 4 11 14 11 20 0 35 -13 15 -12 16 4 3 14 -11 20 -11 35 0z m432 -41
c199 -61 361 -159 515 -314 154 -155 269 -347 318 -530 l22 -85 70 -49 c110
-77 273 -206 357 -282 42 -39 84 -70 93 -70 9 0 36 14 60 31 52 38 77 33 104
-20 27 -52 41 -139 41 -250 0 -80 -4 -105 -24 -147 -40 -85 -146 -149 -322
-192 -79 -20 -147 -30 -389 -57 -71 -9 -161 -19 -200 -25 -74 -9 -522 -50
-555 -50 -17 0 -20 7 -20 50 0 144 -136 220 -392 220 -168 0 -438 72 -680 180
-61 27 -120 50 -130 50 -25 0 -45 -44 -29 -64 32 -38 434 -188 591 -220 101
-21 239 -36 326 -36 194 0 283 -92 205 -211 -90 -135 -318 -199 -709 -199
-284 0 -551 28 -927 99 -322 60 -464 63 -800 21 -220 -28 -475 -24 -600 9
-106 28 -211 80 -273 136 l-50 45 34 51 c36 54 41 78 22 97 -25 25 -57 14 -77
-26 -23 -46 -81 -99 -116 -108 -59 -15 -120 28 -158 109 -70 149 -32 209 147
231 87 11 91 13 94 37 4 36 -15 47 -83 51 l-60 3 -3 112 c-5 204 44 344 169
477 38 40 65 77 61 81 -4 5 -2 5 4 2 13 -7 133 89 239 193 68 66 86 78 122 83
42 5 75 25 173 105 59 48 81 51 175 27 94 -24 181 -72 252 -138 100 -94 168
-204 218 -357 39 -119 102 -179 143 -138 19 19 14 38 -17 73 -16 18 -38 63
-50 99 -12 36 -33 91 -47 121 -15 31 -25 57 -23 59 2 1 27 15 54 31 80 45 150
92 320 216 348 253 576 380 818 455 l59 18 19 -24 c10 -14 19 -40 19 -57 0
-43 35 -67 89 -61 38 3 40 2 43 -25 2 -18 13 -34 30 -45 25 -15 28 -15 50 3
18 16 20 16 9 3 -12 -16 -11 -18 8 -18 24 0 58 30 70 63 8 20 15 22 50 19 24
-3 41 -9 41 -17 0 -25 42 -64 75 -71 47 -8 75 3 87 37 7 19 17 29 31 30 74 2
101 20 94 63 -3 24 3 39 29 70 19 22 34 46 34 53 0 16 16 13 150 -27z m-510
-43 c0 -2 -12 -14 -27 -28 l-28 -24 24 28 c23 25 31 32 31 24z m150 -22 c13
-14 21 -25 18 -25 -2 0 -15 11 -28 25 -13 14 -21 25 -18 25 2 0 15 -11 28 -25z
m-220 -48 c0 -2 -12 -14 -27 -28 l-28 -24 24 28 c23 25 31 32 31 24z m-2400
-241 c0 -19 -60 -40 -74 -26 -7 7 -4 15 10 25 25 19 64 19 64 1z m4044 -353
c32 -100 39 -243 13 -269 -3 -3 -39 19 -79 48 -69 52 -74 58 -85 109 -7 30
-15 64 -19 76 -5 18 2 26 48 52 29 17 65 31 80 31 23 0 29 -7 42 -47z m-4751
-655 c2 -7 5 -51 6 -98 2 -85 2 -85 -28 -102 -28 -15 -31 -15 -45 0 -40 46
-50 158 -16 192 22 22 75 27 83 8z"/>
<path d="M7562 2657 c-48 -51 -65 -134 -37 -187 26 -50 92 -79 111 -49 4 7 7
62 7 124 0 62 -3 117 -7 124 -12 18 -51 12 -74 -12z"/>
<path d="M3805 5156 c-14 -24 -37 -72 -51 -107 -13 -35 -43 -102 -66 -148 -36
-73 -42 -95 -46 -166 -4 -84 6 -137 36 -183 l15 -23 26 23 26 23 -24 -27 c-19
-22 -22 -30 -12 -42 10 -12 8 -41 -8 -138 -11 -68 -23 -163 -26 -213 -5 -55
-19 -126 -37 -185 -17 -54 -32 -128 -35 -172 l-5 -76 -107 -37 c-106 -36 -384
-168 -431 -204 l-25 -20 24 -25 c14 -14 28 -26 33 -26 5 0 48 21 96 48 121 66
238 118 345 153 l90 29 24 -22 c15 -14 23 -33 23 -54 0 -46 22 -64 81 -64 45
0 49 -2 49 -24 0 -32 35 -56 80 -56 40 0 76 27 85 63 5 19 11 22 46 19 31 -3
42 -10 49 -27 13 -34 58 -65 96 -65 36 0 74 28 74 55 0 10 10 15 33 15 55 0
82 21 82 61 0 24 9 46 27 67 15 18 29 41 33 52 7 23 11 23 156 -21 168 -51
338 -148 477 -274 153 -139 306 -384 355 -569 22 -84 22 -84 86 -131 62 -46
63 -46 84 -28 22 18 22 18 4 -3 -17 -21 -17 -22 40 -64 63 -47 128 -101 240
-197 40 -35 80 -63 89 -63 8 0 30 11 47 24 47 34 63 37 90 15 38 -29 58 -100
64 -229 7 -139 -3 -182 -56 -241 -100 -114 -244 -154 -761 -214 -124 -14 -243
-28 -265 -30 -59 -7 -386 -35 -407 -35 -15 0 -18 8 -18 48 0 54 -41 131 -82
153 -13 7 -25 15 -28 19 -14 21 -129 42 -276 50 -230 13 -421 64 -694 184
-117 52 -135 55 -150 26 -20 -37 -3 -54 108 -102 292 -127 573 -197 792 -198
114 0 176 -18 216 -63 42 -46 43 -78 7 -142 -94 -168 -485 -240 -1046 -190
-167 15 -412 47 -495 66 -309 69 -538 82 -812 48 -246 -30 -547 -33 -664 -6
-130 31 -241 83 -297 139 -45 44 -49 52 -36 67 8 9 24 35 37 57 18 34 20 45
11 63 -20 36 -47 26 -86 -34 -58 -91 -132 -118 -202 -76 -66 41 -120 187 -92
247 20 42 89 73 177 79 84 5 92 8 92 39 0 36 -19 46 -87 46 l-63 0 -2 53 c-10
321 60 464 337 693 33 27 96 84 141 127 60 57 88 77 108 77 36 0 91 29 146 77
93 81 109 85 215 58 87 -22 172 -67 236 -124 31 -28 59 -48 63 -46 3 3 4 2 2
-1 -3 -4 12 -29 33 -58 46 -61 100 -166 130 -255 28 -81 37 -99 69 -133 27
-30 60 -36 80 -16 18 18 15 33 -14 67 -14 17 -44 79 -66 138 -22 60 -44 112
-49 117 -17 18 -9 32 28 50 49 23 216 136 356 240 62 46 155 111 207 145 52
35 96 66 98 70 1 4 -10 19 -26 34 l-28 27 -100 -68 c-54 -37 -175 -123 -269
-191 -176 -127 -269 -187 -309 -197 -18 -4 -28 3 -51 35 -15 23 -30 41 -33 41
-3 0 -15 -8 -26 -17 l-21 -18 20 24 20 23 -45 40 c-94 81 -204 136 -321 159
-35 7 -77 22 -94 35 -85 63 -236 57 -315 -14 -35 -31 -43 -45 -47 -84 -3 -26
-1 -60 5 -76 10 -29 7 -33 -61 -100 -40 -39 -106 -99 -147 -133 -216 -177
-312 -319 -346 -511 -6 -37 -8 -38 -48 -38 -97 0 -146 -58 -146 -173 0 -70 15
-120 50 -164 17 -23 20 -35 14 -83 -12 -107 52 -251 136 -306 48 -32 125 -43
170 -24 28 11 33 10 55 -10 13 -12 28 -19 34 -16 6 4 9 1 6 -6 -7 -18 136
-112 218 -142 168 -64 406 -73 777 -31 124 13 253 25 288 25 75 0 227 -16 337
-36 575 -103 880 -132 1190 -114 277 17 467 74 568 171 48 47 79 63 122 60 17
-1 113 5 215 14 165 14 291 28 730 81 339 41 543 140 601 293 19 50 21 70 16
201 -3 102 -10 160 -22 195 -45 126 -127 174 -218 125 -44 -24 -40 -25 -132
54 -39 34 -87 75 -108 91 -38 30 -38 30 -24 65 18 43 31 126 22 141 -5 7 -17
2 -34 -13 l-26 -23 28 31 c34 37 34 61 2 163 -31 97 -56 121 -125 121 -33 0
-65 -9 -106 -30 -32 -16 -60 -30 -61 -30 -1 0 -19 34 -42 75 -170 316 -470
552 -839 661 -9 3 -6 12 10 35 26 34 29 90 14 212 -8 57 -6 73 10 102 15 29
16 37 5 59 -27 50 -89 38 -123 -24 -17 -30 -19 -47 -13 -120 12 -147 11 -175
-4 -175 -8 0 -19 20 -27 50 -7 28 -21 70 -32 95 -22 53 -37 116 -53 225 -9 68
-39 179 -63 236 -5 11 3 29 23 52 54 61 75 121 77 222 1 50 10 128 19 175 18
89 16 160 -5 185 -22 26 -57 16 -140 -40 l-81 -55 -59 20 c-33 11 -68 20 -78
20 -12 0 -28 20 -49 63 -66 135 -113 159 -158 83z m25 -466 c36 -26 56 -78 34
-87 -15 -5 -27 6 -38 32 -2 6 -19 -3 -37 -20 l-34 -30 30 34 c17 19 25 35 19
38 -26 9 -47 31 -40 41 11 18 34 15 66 -8z m358 -102 c3 -15 -4 -18 -35 -18
-22 0 -48 -6 -58 -14 -22 -16 -45 -11 -45 10 0 39 131 59 138 22z m-213 -62
c16 -12 17 -16 6 -30 -26 -31 -81 -14 -81 26 0 22 47 25 75 4z m-95 -136 c65
-23 155 -25 228 -6 60 15 66 9 20 -19 -84 -51 -156 -58 -233 -21 -46 21 -100
66 -79 66 5 -1 34 -9 64 -20z m-2296 -1104 c-6 -15 -47 -36 -69 -36 -21 0 -19
27 3 39 26 16 72 14 66 -3z m4039 -360 c24 -65 36 -198 22 -233 -10 -25 -58
-43 -49 -19 2 6 -19 26 -46 44 -53 34 -57 41 -85 135 -19 67 -16 75 48 106 64
33 88 25 110 -33z m-4749 -697 c11 -114 9 -135 -19 -147 -14 -7 -31 -12 -38
-12 -23 0 -40 45 -45 116 -4 66 -3 72 19 88 13 9 35 16 50 16 25 0 27 -3 33
-61z"/>
<path d="M1467 2653 c-55 -58 -60 -172 -10 -219 28 -26 77 -32 89 -12 11 17
11 219 1 241 -12 25 -50 21 -80 -10z"/>
</g>
</svg>
