<?xml version="1.0" standalone="no"?>
<!DOCTYPE svg PUBLIC "-//W3C//DTD SVG 20010904//EN"
 "http://www.w3.org/TR/2001/REC-SVG-20010904/DTD/svg10.dtd">
<svg version="1.0" xmlns="http://www.w3.org/2000/svg"
 width="360.000000pt" height="360.000000pt" viewBox="0 0 360.000000 360.000000"
 preserveAspectRatio="xMidYMid meet">
<metadata>
Created by potrace 1.16, written by Peter Selinger 2001-2019
</metadata>
<g transform="translate(0.000000,360.000000) scale(0.100000,-0.100000)"
fill="#000000" stroke="none">
<path d="M1270 2725 c-36 -8 -78 -19 -94 -25 -16 -5 -74 -10 -130 -10 -117 0
-221 -22 -253 -52 -32 -30 -30 -86 6 -171 l29 -67 -20 -53 c-11 -28 -27 -63
-35 -77 -60 -104 -68 -133 -68 -235 0 -55 3 -111 7 -125 7 -23 2 -28 -58 -60
-75 -40 -134 -101 -134 -138 0 -30 42 -88 70 -97 15 -5 18 -11 11 -23 -5 -9
-12 -37 -16 -62 -4 -25 -15 -56 -25 -70 -53 -74 -63 -226 -20 -309 22 -44 21
-45 -31 -55 -45 -8 -109 -62 -144 -122 -50 -86 -28 -210 54 -298 145 -156 474
-236 979 -236 214 0 342 13 452 47 97 29 147 58 183 104 l25 32 44 -16 c65
-25 117 -22 148 8 l26 25 13 -45 c17 -59 83 -132 140 -157 79 -34 187 -50 341
-50 159 -1 237 10 350 48 122 41 210 119 210 186 0 21 -15 45 -59 92 -68 73
-74 89 -101 271 -28 187 -35 217 -79 348 -79 237 -225 440 -384 536 -80 47
-171 82 -233 88 -30 3 -54 8 -54 10 0 3 26 30 59 62 32 31 61 63 64 72 15 44
-127 178 -236 224 -21 8 -48 33 -65 57 -39 56 -135 147 -192 183 -93 59 -219
115 -315 141 -125 33 -358 43 -465 19z m403 -40 c116 -24 295 -103 381 -169
86 -64 161 -147 161 -177 0 -17 10 -25 41 -34 93 -27 244 -146 244 -192 0 -27
-91 -108 -158 -139 -40 -19 -60 -34 -59 -44 2 -9 12 -14 25 -13 27 3 29 -18 6
-97 -26 -92 -27 -100 -14 -100 7 0 18 7 25 16 10 14 14 7 24 -45 11 -58 30
-252 31 -314 0 -24 -4 -28 -22 -25 -25 3 -26 10 -12 101 5 38 4 47 -8 47 -9 0
-19 -19 -27 -52 -13 -58 -60 -138 -99 -168 -28 -22 -82 -26 -100 -8 -19 19
-14 45 25 132 26 58 38 99 41 144 3 42 9 65 18 69 18 7 18 33 0 33 -8 0 -36
-9 -63 -21 -156 -67 -436 -74 -782 -18 -284 45 -531 170 -591 297 -40 84 -22
241 36 327 13 20 24 41 24 46 0 6 19 48 42 92 94 182 248 287 488 331 49 9
247 -2 323 -19z m-613 -34 c0 -4 -31 -31 -69 -59 -40 -31 -82 -72 -101 -102
l-33 -51 -18 30 c-18 31 -39 94 -39 123 0 11 17 22 50 33 85 28 210 44 210 26z
m1425 -732 c160 -42 279 -119 385 -248 69 -85 155 -244 189 -350 19 -59 65
-278 90 -433 16 -96 44 -153 102 -209 60 -57 59 -74 -2 -131 -52 -48 -164 -94
-280 -114 -117 -20 -362 -14 -453 11 -139 39 -206 122 -206 254 0 25 14 111
30 191 66 314 72 352 73 495 1 144 -18 301 -48 386 -13 35 -13 53 -4 101 12
58 12 58 48 58 20 0 54 -5 76 -11z m-1745 -92 c-29 -26 -94 -122 -104 -154
-10 -31 -30 -29 -61 4 -30 33 -29 32 -7 59 40 48 142 113 177 113 18 0 18 -1
-5 -22z m92 -57 c133 -101 289 -158 568 -207 133 -23 184 -27 355 -27 173 0
210 3 275 21 41 11 83 24 94 28 17 8 18 4 14 -46 -2 -33 -17 -83 -36 -122 -48
-104 -50 -130 -14 -167 17 -16 38 -30 48 -30 14 0 16 -6 11 -35 -6 -38 -45
-125 -73 -162 -15 -21 -15 -23 0 -29 9 -3 24 0 33 7 23 19 80 142 88 189 4 26
15 44 33 56 27 18 69 60 74 75 2 5 18 4 37 -3 l33 -13 -7 -69 c-8 -81 -23
-163 -65 -345 -16 -73 -30 -142 -30 -153 0 -18 -1 -18 -16 -3 -9 9 -37 26 -61
37 -25 12 -47 27 -50 35 -8 20 -33 16 -33 -5 0 -22 30 -50 83 -76 41 -21 57
-57 37 -81 -16 -19 -71 -19 -115 -1 -33 14 -35 18 -35 63 0 80 -18 124 -70
174 -72 71 -147 92 -298 87 -97 -4 -131 -10 -197 -34 -78 -28 -85 -29 -265
-29 -199 1 -262 10 -395 60 -159 60 -271 149 -295 233 -22 82 -9 182 35 245
13 20 28 60 34 89 13 72 62 176 108 231 21 25 39 46 40 46 2 1 26 -17 55 -39z
m-183 -744 c147 -107 369 -167 616 -165 120 0 152 5 295 44 81 22 111 26 200
23 191 -6 275 -71 274 -210 0 -60 -4 -72 -30 -105 -76 -93 -256 -133 -599
-133 -400 0 -678 44 -837 133 -90 50 -124 80 -158 141 -46 80 -40 186 13 245
39 42 79 61 131 61 39 0 57 -6 95 -34z"/>
<path d="M937 2242 c-35 -38 -6 -92 48 -92 36 0 55 20 55 59 0 47 -70 69 -103
33z"/>
<path d="M1140 2153 c-24 -4 -25 -8 -28 -71 -4 -114 41 -140 73 -43 12 38 22
51 36 51 10 0 19 5 19 10 0 6 -8 10 -17 10 -10 0 -26 10 -38 23 -13 15 -28 22
-45 20z m33 -37 c6 -16 -6 -75 -20 -101 -10 -17 -11 -17 -17 3 -7 19 1 87 11
105 7 11 20 8 26 -7z"/>
<path d="M1433 2140 c-30 -12 -40 -56 -22 -89 12 -21 22 -26 54 -26 32 0 42 5
54 26 19 34 8 73 -24 87 -30 14 -32 14 -62 2z"/>
<path d="M734 1475 c-15 -15 -23 -32 -20 -41 3 -9 6 -20 6 -25 0 -9 52 -39 68
-39 4 0 18 9 30 20 29 27 29 74 0 94 -32 23 -55 20 -84 -9z"/>
<path d="M1272 1390 c-66 -27 -37 -130 36 -130 58 0 88 85 42 122 -24 20 -43
22 -78 8z"/>
<path d="M912 1373 c2 -13 13 -18 38 -18 27 0 39 -6 53 -28 13 -21 24 -28 44
-25 26 3 53 31 41 43 -3 4 -16 0 -28 -7 -19 -12 -24 -10 -44 16 -20 24 -28 27
-55 21 -20 -4 -31 -3 -31 4 0 6 -5 11 -11 11 -6 0 -9 -8 -7 -17z"/>
</g>
</svg>
