<?xml version="1.0" standalone="no"?>
<!DOCTYPE svg PUBLIC "-//W3C//DTD SVG 20010904//EN"
 "http://www.w3.org/TR/2001/REC-SVG-20010904/DTD/svg10.dtd">
<svg version="1.0" xmlns="http://www.w3.org/2000/svg"
 width="325.000000pt" height="260.000000pt" viewBox="0 0 325.000000 260.000000"
 preserveAspectRatio="xMidYMid meet">

<g transform="translate(0.000000,260.000000) scale(0.100000,-0.100000)"
fill="#000000" stroke="none">
<path d="M1479 2201 c-28 -28 -31 -36 -27 -84 2 -46 -1 -59 -24 -89 -15 -20
-34 -51 -43 -69 -9 -19 -39 -49 -66 -68 -155 -106 -243 -301 -224 -493 27
-281 268 -575 454 -555 23 3 50 12 59 20 23 23 17 78 -17 155 -37 85 -55 155
-47 186 3 13 18 39 33 57 19 22 22 31 11 27 -37 -15 -85 -19 -109 -10 -13 6
-38 28 -53 51 -26 38 -28 43 -13 59 8 9 20 34 25 55 6 20 23 52 37 69 23 27
26 39 22 76 l-5 45 51 -7 c119 -14 254 -111 309 -224 l33 -67 0 -160 0 -160
-37 -69 c-44 -80 -45 -87 -18 -111 19 -17 26 -18 66 -7 158 43 255 208 270
464 6 87 3 117 -15 190 -22 88 -58 183 -92 248 -35 67 -35 67 -65 40 l-28 -25
17 27 c9 15 22 50 28 78 7 31 18 54 30 60 29 16 52 68 45 103 -10 50 -43 77
-93 77 -32 0 -54 7 -77 25 -63 48 -125 68 -211 69 -58 1 -87 6 -106 19 -14 9
-39 20 -57 23 -26 5 -36 1 -63 -25z m235 -332 c-9 -15 -40 -10 -68 12 -41 32
-31 40 24 17 27 -11 47 -24 44 -29z m183 -35 c26 -7 21 -24 -7 -24 -11 0 -26
-12 -35 -27 l-16 -28 7 35 c10 54 11 55 51 44z"/>
<path d="M1495 1430 c-3 -6 1 -7 9 -4 18 7 21 14 7 14 -6 0 -13 -4 -16 -10z"/>
<path d="M1775 639 c-11 -4 -14 -8 -7 -8 8 -1 12 -24 12 -80 0 -54 -4 -81 -12
-84 -7 -3 4 -6 25 -6 34 -1 37 1 23 14 -11 11 -15 37 -15 91 0 42 -1 77 -3 79
-2 1 -12 -1 -23 -6z"/>
<path d="M658 632 c19 -13 24 -139 5 -157 -13 -13 -10 -15 24 -14 21 0 32 3
26 6 -7 2 -13 20 -13 39 0 29 3 34 25 34 13 0 36 5 50 12 31 14 35 62 6 78
-23 12 -142 14 -123 2z m116 -24 c16 -26 -4 -52 -43 -56 -30 -3 -31 -2 -31 38
0 40 1 41 31 38 18 -2 37 -11 43 -20z"/>
<path d="M1121 628 c0 -9 -10 -23 -21 -31 -16 -11 -18 -16 -7 -20 8 -3 14 -22
14 -50 1 -55 8 -67 36 -66 17 1 18 2 5 6 -14 4 -18 15 -18 58 0 48 3 54 23 58
22 4 22 4 0 6 -16 1 -23 9 -26 29 -2 15 -5 19 -6 10z"/>
<path d="M1501 623 c0 -12 -9 -27 -18 -32 -10 -6 -12 -11 -5 -11 8 0 12 -18
12 -54 0 -40 4 -55 16 -60 25 -10 41 -6 22 5 -13 7 -18 23 -18 59 0 42 3 49
23 53 22 4 22 4 0 6 -16 1 -23 9 -26 29 -3 21 -4 22 -6 5z"/>
<path d="M1691 628 c0 -10 -10 -23 -20 -30 -16 -10 -17 -14 -5 -26 8 -7 12
-25 10 -39 -8 -39 10 -73 36 -72 17 1 19 2 6 6 -14 4 -18 15 -18 58 0 48 3 54
23 58 22 4 22 4 0 6 -16 1 -23 9 -26 29 -2 15 -5 19 -6 10z"/>
<path d="M2209 625 c-38 -21 -52 -67 -35 -109 14 -35 61 -61 93 -53 12 3 10 5
-9 6 -52 2 -84 73 -57 124 25 46 68 50 106 10 18 -19 24 -22 20 -10 -4 10 -7
22 -7 26 0 4 -6 8 -12 9 -7 1 -26 4 -43 7 -17 3 -41 -1 -56 -10z"/>
<path d="M2551 628 c0 -9 -10 -23 -21 -31 -16 -11 -18 -16 -7 -20 9 -3 13 -18
12 -44 -3 -49 10 -73 38 -72 17 1 18 2 5 6 -14 4 -18 15 -18 58 0 43 4 54 18
58 15 4 15 5 0 6 -10 1 -18 12 -21 29 -2 15 -5 19 -6 10z"/>
<path d="M823 579 c22 -13 23 -81 1 -103 -14 -15 -12 -16 23 -15 21 0 32 3 26
6 -9 3 -13 26 -13 64 0 58 -1 59 -27 59 -24 -1 -25 -2 -10 -11z"/>
<path d="M896 575 c4 -8 10 -15 15 -15 5 0 9 7 9 15 0 8 -7 15 -15 15 -9 0
-12 -6 -9 -15z"/>
<path d="M962 574 c-46 -32 -18 -114 39 -114 29 0 62 34 62 65 0 31 -33 65
-62 65 -9 0 -27 -7 -39 -16z m67 -8 c17 -20 10 -77 -11 -90 -39 -24 -74 36
-48 84 12 23 42 26 59 6z"/>
<path d="M1211 571 c-12 -12 -21 -30 -21 -41 0 -28 44 -70 72 -69 20 1 21 2 3
6 -31 8 -45 23 -45 49 0 22 4 24 45 24 25 0 45 3 45 8 -1 18 -18 32 -47 38
-24 5 -36 1 -52 -15z m69 -6 c11 -13 7 -15 -24 -15 -34 0 -44 8 -29 23 11 12
40 8 53 -8z"/>
<path d="M1363 580 c-27 -11 -39 -53 -25 -85 10 -22 66 -44 79 -31 4 3 -3 6
-13 6 -29 0 -44 19 -44 55 0 17 5 36 12 43 19 19 49 14 55 -8 6 -23 23 -27 23
-5 0 15 -30 35 -52 34 -7 0 -23 -4 -35 -9z"/>
<path d="M1858 580 c18 -8 22 -17 22 -54 0 -32 -5 -48 -17 -55 -15 -8 -10 -10
22 -11 30 0 36 3 27 12 -7 7 -12 30 -12 53 0 46 -14 65 -44 64 -20 0 -20 -1 2
-9z"/>
<path d="M1999 581 c40 -11 38 -31 -3 -31 -30 0 -34 3 -29 18 6 15 5 15 -10 3
-27 -21 -22 -77 8 -97 13 -8 32 -14 42 -11 14 4 14 5 -4 6 -23 1 -43 27 -43
55 0 12 11 16 45 16 33 0 45 4 45 15 0 17 -31 35 -57 34 -13 -1 -11 -3 6 -8z"/>
<path d="M2385 576 c-11 -8 -17 -18 -12 -22 4 -4 13 0 20 10 7 10 22 17 33 15
15 -3 20 -14 22 -49 4 -49 16 -70 41 -70 12 0 13 2 3 9 -8 4 -15 29 -17 55 -1
26 -5 49 -7 51 -14 14 -65 15 -83 1z"/>
<path d="M2383 520 c-38 -16 -22 -61 22 -59 19 0 19 1 -2 9 -27 11 -21 37 11
50 12 5 15 9 6 9 -8 0 -25 -4 -37 -9z"/>
<path d="M2306 485 c-11 -8 -15 -15 -9 -15 6 0 16 7 23 15 16 19 11 19 -14 0z"/>
</g>
</svg>
